name rise42.5664peak47.7979fall81.9185.mot
datacolumns 19
datarows 17
range 19.40658900000000 19.43325800000000
endheader
time	ground_force1_vx	ground_force1_vy	ground_force1_vz	ground_force1_px	ground_force1_py	ground_force1_pz	ground_force2_vx	ground_force2_vy	ground_force2_vz	ground_force2_px	ground_force2_py	ground_force2_pz	ground_torque1_x	ground_torque1_y	ground_torque1_z	ground_torque2_x	ground_torque2_y	ground_torque2_z	
19.40658900000000	-5.33271700000000	41.88586100000000	-9.56561200000000	0.31386000000000	0.00000000000000	0.08562900000000	-50.50632500000000	824.04064400000004	-47.65486000000000	0.12075400000000	0.00000000000000	-0.06646400000000	0.00000000000000	-6.20139300000000	0.00000000000000	0.00000000000000	-15.97446900000000	0.00000000000000	
19.40827100000000	-5.86776700000000	48.91257900000000	-10.76556000000000	0.31951900000000	0.00000000000000	0.08629000000000	-51.13955500000000	821.55029600000000	-47.30645900000000	0.12002900000000	0.00000000000000	-0.06637900000000	0.00000000000000	-7.05761500000000	0.00000000000000	0.00000000000000	-15.92612000000000	0.00000000000000	
19.40992100000000	-6.30489100000000	55.97983600000000	-11.85958300000000	0.32458300000000	0.00000000000000	0.08690800000000	-51.78093400000000	818.90031899999997	-46.93330000000000	0.11930300000000	0.00000000000000	-0.06629100000000	0.00000000000000	-7.85688800000000	0.00000000000000	0.00000000000000	-15.87663600000000	0.00000000000000	
19.41159300000000	-6.62865700000000	62.99264100000000	-12.82256100000000	0.32913800000000	0.00000000000000	0.08748800000000	-52.42991900000000	816.08825899999999	-46.53542600000000	0.11857600000000	0.00000000000000	-0.06619900000000	0.00000000000000	-8.58074300000000	0.00000000000000	0.00000000000000	-15.82603000000000	0.00000000000000	
19.41325500000000	-6.82931500000000	69.88029800000000	-13.63783700000000	0.33325500000000	0.00000000000000	0.08803500000000	-53.08588300000000	813.11168099999998	-46.11291600000000	0.11784900000000	0.00000000000000	-0.06610400000000	0.00000000000000	-9.21628000000000	0.00000000000000	0.00000000000000	-15.77430500000000	0.00000000000000	
19.41492600000000	-6.90276100000000	76.59843800000000	-14.29733800000000	0.33698900000000	0.00000000000000	0.08855500000000	-53.74810600000000	809.96817599999997	-45.66588100000000	0.11712100000000	0.00000000000000	-0.06600600000000	0.00000000000000	-9.75638700000000	0.00000000000000	0.00000000000000	-15.72145400000000	0.00000000000000	
19.41658700000000	-6.85005500000000	83.12853500000000	-14.80096900000000	0.34039100000000	0.00000000000000	0.08904900000000	-54.41578100000000	806.65537300000005	-45.19446800000000	0.11639300000000	0.00000000000000	-0.06590400000000	0.00000000000000	-10.19945000000000	0.00000000000000	0.00000000000000	-15.66745800000000	0.00000000000000	
19.41826000000000	-6.67659500000000	89.47539200000000	-15.15545500000000	0.34349900000000	0.00000000000000	0.08952200000000	-55.08800900000000	803.17093899999998	-44.69886000000000	0.11566400000000	0.00000000000000	-0.06580000000000	0.00000000000000	-10.54866100000000	0.00000000000000	0.00000000000000	-15.61228800000000	0.00000000000000	
19.41992500000000	-6.39109000000000	95.66313100000001	-15.37282600000000	0.34634900000000	0.00000000000000	0.08997400000000	-55.76380100000000	799.51259300000004	-44.17927500000000	0.11493400000000	0.00000000000000	-0.06569200000000	0.00000000000000	-10.81104000000000	0.00000000000000	0.00000000000000	-15.55590300000000	0.00000000000000	
19.42159300000000	-6.00443700000000	101.73029699999999	-15.46873200000000	0.34896800000000	0.00000000000000	0.09040900000000	-56.44207800000000	795.67811099999994	-43.63597100000000	0.11420300000000	0.00000000000000	-0.06558100000000	0.00000000000000	-10.99631500000000	0.00000000000000	0.00000000000000	-15.49825100000000	0.00000000000000	
19.42325700000000	-5.52862400000000	107.72462800000000	-15.46075100000000	0.35138300000000	0.00000000000000	0.09082800000000	-57.12167200000000	791.66533400000003	-43.06924100000000	0.11347100000000	0.00000000000000	-0.06546700000000	0.00000000000000	-11.11577500000000	0.00000000000000	0.00000000000000	-15.43927100000000	0.00000000000000	
19.42492800000000	-4.97573600000000	113.69797900000000	-15.36683500000000	0.35361400000000	0.00000000000000	0.09123200000000	-57.80132700000000	787.47218099999998	-42.47942000000000	0.11273900000000	0.00000000000000	-0.06535000000000	0.00000000000000	-11.18118900000000	0.00000000000000	0.00000000000000	-15.37888800000000	0.00000000000000	
19.42659500000000	-4.35712400000000	119.70177300000000	-15.20399700000000	0.35568000000000	0.00000000000000	0.09162200000000	-58.47970000000000	783.09665800000005	-41.86688100000000	0.11200700000000	0.00000000000000	-0.06523000000000	0.00000000000000	-11.20388200000000	0.00000000000000	0.00000000000000	-15.31702000000000	0.00000000000000	
19.42825600000000	-3.68278600000000	125.78325200000000	-14.98728700000000	0.35759700000000	0.00000000000000	0.09200000000000	-59.15536600000000	778.53686600000003	-41.23203800000000	0.11127400000000	0.00000000000000	-0.06510700000000	0.00000000000000	-11.19399400000000	0.00000000000000	0.00000000000000	-15.25357100000000	0.00000000000000	
19.42993800000000	-2.96095600000000	131.98267300000001	-14.72910400000000	0.35937900000000	0.00000000000000	0.09236600000000	-59.82681600000000	773.79101500000002	-40.57534500000000	0.11054100000000	0.00000000000000	-0.06498000000000	0.00000000000000	-11.15997000000000	0.00000000000000	0.00000000000000	-15.18843900000000	0.00000000000000	
19.43159000000000	-2.19790700000000	138.33150100000000	-14.43882600000000	0.36103700000000	0.00000000000000	0.09272100000000	-60.49246700000000	768.85743500000001	-39.89729900000000	0.10980900000000	0.00000000000000	-0.06485100000000	0.00000000000000	-11.10826600000000	0.00000000000000	0.00000000000000	-15.12150900000000	0.00000000000000	
19.43325800000000	-1.39794100000000	144.85154900000001	-14.12273200000000	0.36258400000000	0.00000000000000	0.09306600000000	-61.15065700000000	763.73459200000002	-39.19843700000000	0.10907600000000	0.00000000000000	-0.06471900000000	0.00000000000000	-11.04325700000000	0.00000000000000	0.00000000000000	-15.05266000000000	0.00000000000000	
